# xmcd
#
# Track frame offsets: 
#        150
#        16359
#        38058
#        62609
#        82142
#        101319
#        127538
#        155299
#        174355
#        196969
#        219422
#        230651
#        238947
#        250558
#
# Disc length: 3493 seconds
#
# Revision: 1
# Processed by: cddbd v1.5.2PL0 Copyright (c) Steve Scherf et al.
# Submitted via: ExactAudioCopy v0.99pb4
#
DISCID=a80da30e
DTITLE=Nightloosers - Plum Brandy Blues
DYEAR=1997
DGENRE=Folk
TTITLE0=Shame,Shame
TTITLE1=Baby Why You Want
TTITLE2=Everyday I Have The Blues
TTITLE3=Pretty Thing
TTITLE4=All Your Love
TTITLE5=Little City Woman
TTITLE6=Stormy Monday Blues
TTITLE7=Five Long Years
TTITLE8=Hoochie Coochie Man
TTITLE9=Mystery Train
TTITLE10=Trouble In Mind
TTITLE11=Balkan Blue Rumba
TTITLE12=Blue Suede Shoe
TTITLE13=Goodnight Irene
EXTD=
EXTT0=
EXTT1=
EXTT2=
EXTT3=
EXTT4=
EXTT5=
EXTT6=
EXTT7=
EXTT8=
EXTT9=
EXTT10=
EXTT11=
EXTT12=
EXTT13=
PLAYORDER=
